<svg height="512pt" viewBox="0 -5 512 512" width="512pt" xmlns="http://www.w3.org/2000/svg"><path d="m384.277344 81.214844c-78.453125 0-142.277344 63.824218-142.277344 142.277344v25.625c-6.640625 8.246093-12.40625 17.15625-17.347656 27.402343-3.929688-5.738281-8.503906-11.03125-13.652344-15.785156v-7.4375c0-61.804687-50.730469-112.082031-113.082031-112.082031-12.675781 0-25.371094-2.996094-36.707031-8.667969l-61.210938-30.605469v84.273438c0 57.894531 47.101562 105 105 105h93.238281c6.507813 8.648437 10.769531 18.9375 12.207031 30.003906-49.371093.300781-89.445312 40.554688-89.445312 89.996094 0 49.625 40.375 90 90 90h211c49.625 0 90-40.375 90-90s-40.375-90-90-90h-179.9375c3.179688-22.753906 13.492188-43.625 29.03125-60h105.90625c74.4375 0 135-60.5625 135-135v-126.214844l-48.328125 48.328125c-21.207031 21.207031-49.402344 32.886719-79.394531 32.886719zm0 30c20.042968 0 39.453125-4.125 57.261718-11.960938-31.34375 48.953125-78.625 85.84375-133.902343 104.269532-12.78125 4.261718-24.726563 10.242187-35.609375 17.726562 1.199218-60.878906 51.089844-110.035156 112.25-110.035156zm-204.121094 130.484375c-42.082031-17.125-80.523438-42.8125-112.269531-74.609375 9.769531 2.710937 19.902343 4.125 30.03125 4.125 41.824219 0 76.515625 30.699218 82.238281 70.484375zm-150.15625-55.484375v-15.710938c33.9375 39.027344 75.269531 69.546875 120.019531 90.710938h-45.019531c-41.355469 0-75-33.644532-75-75zm121 225c0-33.085938 26.914062-60 60-60h91v120h-91c-33.085938 0-60-26.917969-60-60zm331 0c0 33.082031-26.914062 60-60 60h-90v-120h90c33.085938 0 60 26.914062 60 60zm-105-180h-57.648438c63.441407-21.734375 117.296876-65.261719 151.824219-122.808594l10.824219-18.039062v35.847656c0 57.894531-47.101562 105-105 105zm0 0"/></svg>